ply
format ascii 1.0
comment VCGLIB generated
element vertex 9
property float x
property float y
property float z
property uchar red
property uchar green
property uchar blue
property uchar alpha
element face 14
property list uchar int vertex_indices
end_header
0. 1.7320508 0. 102 255 0 255
1. 1.7320508 0. 102 255 0 255
2. 1.7320508 0. 102 255 0 255
0.5 0.866025 0. 102 255 0 255
1.5 0.866025 0. 102 255 0 255
0. 0. 0. 102 255 0 255
1. 0. 0. 102 255 0 255
2. 0. 0. 102 255 0 255
1.5 0.866025 1. 102 255 0 255
3 0 3 1
3 3 4 1
3 1 4 2 
3 2 4 7
3 6 7 4
3 3 6 4
3 5 6 3
3 0 5 3
3 2 7 8
3 2 8 1
3 1 8 0
3 0 8 5
3 5 8 6
3 6 8 7


